<?xml version="1.0" encoding="utf-8"?>
<!-- Generator: Adobe Illustrator 16.0.0, SVG Export Plug-In . SVG Version: 6.00 Build 0)  -->
<!DOCTYPE svg PUBLIC "-//W3C//DTD SVG 1.1//EN" "http://www.w3.org/Graphics/SVG/1.1/DTD/svg11.dtd">
<svg version="1.1" id="Layer_1" xmlns="http://www.w3.org/2000/svg" xmlns:xlink="http://www.w3.org/1999/xlink" x="0px" y="0px"
	 width="188.667px" height="155px" viewBox="0 0 188.667 155" enable-background="new 0 0 188.667 155" xml:space="preserve">
<g>
	<g>
		<path fill="none" d="M14.667,156c-20.225,0-40.45-0.053-60.673,0.065c-2.565,0.015-3.515-0.231-3.422-3.207
			c0.271-8.612,0.096-17.238,0.096-25.858c3.588-0.463,6.628-1.685,10.837,0.095c6.693,2.829,14.252,3.626,21.516-0.067
			c3.516-1.789,7.504-3.165,11.482-3.011c6.23,0.242,4.28-3.958,4.272-7.061c-0.008-3.063-0.378-5.884-4.821-4.01
			c-1.854,0.782-2.889-0.979-4.086-2.145C-21.639,99.594-34.259,89.997-49.333,84c0-54.333,0.041-108.667-0.097-163
			c-0.009-3.425,0.672-4.102,4.097-4.096c77,0.125,154,0.125,231,0c3.424-0.006,4.102,0.671,4.096,4.096c-0.125,77-0.125,154,0,231
			c0.006,3.424-0.641,4.508-4.105,4.076c-2.953-0.368-5.99-0.076-8.99-0.076c0.137-3.159,2.801-6.237,1.566-9.198
			c-4.236-10.166-4.379-21.362-8.709-31.607c-2.194-5.19-4.69-7.962-9.826-8.939c-2.943-0.56-5.833-1.265-8.559-3.533
			c3.164-0.961,5.874,0.855,8.887-0.96c-3.936-2.198-4.51-4.96-2.602-8.445c1.396-2.552-0.098-3.332-2.406-3.171
			c-4.162,0.291-8.787-0.356-10.084,5.483c-0.295,1.325-1.479,2.683-3.244,2.711c-0.949,0.016-1.534-0.691-1.73-1.536
			c-0.535-2.307-1.203-5.441,0.482-6.688c3.908-2.888,2.648-5.151,0.541-8.203c-0.912-1.321-2.029-3.879-0.336-4.985
			c1.824-1.191,2.251,1.835,3.637,2.523c0.236,0.119,0.602-0.017,0.936-0.037c1.389-3.783-0.857-7.126-1.23-10.683
			c-1.014-9.633-3.049-19.007-7.113-27.821c-3.136-6.8-6.18-14.219-12.227-18.526c-5.066-3.61-10.299-7.327-16.195-10.03
			C97.43,7.299,86.733,5.854,75.663,11.542c-4.756,2.443-9.515,4.882-9.687,11.359c-0.033,1.227-0.842,2.543-1.58,3.622
			c-7.617,11.153-9.885,23.827-10.204,36.93c-0.165,6.727,0.003,13.555,2.65,20.511c1.882-9.681,2.314-18.743,0.977-27.894
			c-0.484-3.312,0.15-6.769,1.4-9.82c2.384-5.823,4.858-13.347,11.575-13.627c5.019-0.209,8.633-3.01,13.148-3.363
			c0.664-0.053,1.328-0.104,1.994-0.146c6.137-0.389,12.307-1.383,18.4-1.036c12.529,0.713,21.861,3.833,24.078,18.001
			c1.646,10.515,3.887,20.893,6.951,31.116c1.729,5.774,1.764,11.844,0.639,17.832c-0.277,1.472-0.53,3.354-2.154,3.675
			c-5.861,1.16-11.652,2.198-15.948-3.966c-1.755-2.518-4.565-4.328-6.995-6.34c-1.9-1.574-3.977-4.55-5.648,0.368
			c-0.492,1.446-2.441,1.74-3.484,1.204c-6.143-3.164-11.41,4.365-17.498,1.322c-0.311-0.155-1.382,0.468-1.566,0.938
			c-0.709,1.793-1.922,2.983-3.766,2.313c-2.609-0.95,0.827-3.167-0.555-4.569c-5.33,2.553-9.134,7.168-10.406,11.497
			c-0.657,2.236,2.253,5.543-0.997,6.354c-1.58,0.395-3.928-2.357-5.955-3.645c-0.516-0.327-1.13-0.499-1.223-0.539
			c-3.917,5.087-2.718,10.454-1.746,15.819c0.176,0.968,0.32,2.031,0.102,2.961c-0.366,1.55-1.705,1.303-2.871,1.109
			c-1.699-0.282-1.059-1.207-0.621-2.169c0.328-0.719,0.458-1.527,0.772-2.632c-5.843-0.169-11.528,2.055-16.782-1.147
			c-1.004-0.612-1.849,0.311-2.735,0.721c-6.083,2.807-8.335,7.485-7.173,14.045c1.061,5.994-0.456,11.479-3.743,16.536
			c-0.484,0.744-0.333,2.315-1.771,1.729c-0.823-0.337-2.004-1.483-1.914-2.102c0.606-4.11-2.176-8.417,0.83-12.407
			c0.862-1.146,1.353-2.695,1.617-4.133c0.258-1.403,0.59-3.232-1.051-4.034c-1.581-0.772-2.239,0.991-3.184,1.796
			c-4.532,3.856-8.24,8.695-13.831,11.289c-2.661,1.235-2.058,2.831-0.336,4.65C8.554,149.035,11.577,152.549,14.667,156z
			 M108.393,64.896c4.906-2.621,9.238-3.715,13.631,0.105c0.865,0.754,2.104,2.263,3.32,0.541c1.002-1.421,1.248-3.077-0.359-4.466
			c-1.65-1.425-3.406-2.712-5.525-3.273c-6.402-1.694-12.939-1.448-19.16,0.28c-7.053,1.96-7.014,2.539-5.652,10.005
			c0.326,1.792,0.404,3.651,0.926,5.381c0.879,2.913,2.998,6.338,5.748,5.493c4.045-1.243,7.898-0.368,11.791-0.851
			c1.949-0.242,3.887-0.3,5.131-2.208c-2.279-1.715-5.373,0.484-8.105-2.749c3.766,0,6.553,0.146,9.315-0.046
			c2.15-0.15,5.773,1.325,6.069-1.369c0.34-3.09-3.205-4.229-6.072-4.691c-1.787-0.288-3.644-0.129-5.469-0.211
			C112.191,66.758,110.305,66.975,108.393,64.896z M74.116,79.568c5.578-0.862,12.504-8.506,12.479-13.811
			c-0.008-1.682-0.318-3.204-1.924-4.327c-5.631-3.939-18.675-1.577-23.432,4.965c5.185-2.188,9.635-1.439,14.492,0.265
			c-2.559,2.151-5.332,2.222-7.739,3.191c-2.042,0.823-4.647,1.521-4.017,4.206c0.66,2.806,3.177,0.17,4.63,0.819
			C70.86,75.884,76.483,73.117,74.116,79.568z M155.723,73.36c-2.776,0.59-4.796,1.76-7.158,1.603
			c-1.111-0.073-1.639,0.951-1.505,2.069c0.088,0.729,0.683,1.307,1.343,1.098C151.072,77.281,154.352,77.266,155.723,73.36z"/>
		<path fill-rule="evenodd" clip-rule="evenodd" d="M14.667,156c-3.09-3.451-6.113-6.965-9.296-10.327
			c-1.721-1.819-2.325-3.415,0.336-4.65c5.591-2.594,9.299-7.433,13.831-11.289c0.944-0.805,1.603-2.568,3.184-1.796
			c1.641,0.802,1.309,2.631,1.051,4.034c-0.265,1.438-0.755,2.987-1.617,4.133c-3.006,3.99-0.224,8.297-0.83,12.407
			c-0.09,0.618,1.091,1.765,1.914,2.102c1.438,0.587,1.287-0.984,1.771-1.729c3.288-5.058,4.804-10.542,3.743-16.536
			c-1.162-6.56,1.09-11.238,7.173-14.045c0.887-0.41,1.731-1.333,2.735-0.721c5.254,3.202,10.939,0.979,16.782,1.147
			c-0.314,1.104-0.444,1.913-0.772,2.632c-0.438,0.962-1.078,1.887,0.621,2.169c1.166,0.193,2.505,0.44,2.871-1.109
			c0.218-0.93,0.074-1.993-0.102-2.961c-0.973-5.365-2.171-10.732,1.746-15.819c0.093,0.04,0.708,0.212,1.223,0.539
			c2.027,1.287,4.375,4.039,5.955,3.645c3.25-0.812,0.34-4.118,0.997-6.354c1.272-4.329,5.076-8.944,10.406-11.497
			c1.382,1.402-2.055,3.619,0.555,4.569c1.844,0.67,3.057-0.521,3.766-2.313c0.185-0.471,1.256-1.094,1.566-0.938
			c6.088,3.043,11.355-4.486,17.498-1.322c1.043,0.536,2.992,0.242,3.484-1.204c1.672-4.918,3.748-1.942,5.648-0.368
			c2.43,2.012,5.24,3.822,6.995,6.34c4.296,6.164,10.087,5.126,15.948,3.966c1.624-0.321,1.877-2.203,2.154-3.675
			c1.125-5.988,1.091-12.058-0.639-17.832c-3.064-10.224-5.305-20.602-6.951-31.116c-2.217-14.168-11.549-17.288-24.078-18.001
			c-6.094-0.347-12.264,0.647-18.4,1.036c-0.666,0.042-1.33,0.093-1.994,0.146c-4.516,0.354-8.13,3.154-13.148,3.363
			c-6.717,0.28-9.191,7.804-11.575,13.627c-1.25,3.052-1.885,6.509-1.4,9.82c1.337,9.15,0.906,18.213-0.977,27.894
			c-2.646-6.956-2.814-13.784-2.65-20.511c0.319-13.103,2.587-25.776,10.204-36.93c0.738-1.079,1.547-2.396,1.58-3.622
			c0.172-6.478,4.931-8.916,9.687-11.359c11.07-5.688,21.768-4.243,32.791,0.812c5.896,2.703,11.129,6.42,16.195,10.03
			c6.047,4.308,9.091,11.727,12.227,18.526c4.064,8.814,6.1,18.188,7.113,27.821c0.373,3.557,2.619,6.899,1.23,10.683
			c-0.334,0.021-0.699,0.156-0.936,0.037c-1.386-0.688-1.812-3.715-3.637-2.523c-1.693,1.106-0.576,3.664,0.336,4.985
			c2.107,3.052,3.367,5.315-0.541,8.203c-1.686,1.246-1.018,4.381-0.482,6.688c0.196,0.845,0.781,1.552,1.73,1.536
			c1.766-0.028,2.949-1.386,3.244-2.711c1.297-5.84,5.922-5.192,10.084-5.483c2.309-0.161,3.803,0.619,2.406,3.171
			c-1.908,3.485-1.334,6.247,2.602,8.445c-3.013,1.815-5.723-0.001-8.887,0.96c2.726,2.269,5.615,2.974,8.559,3.533
			c5.136,0.978,7.632,3.749,9.826,8.939c4.33,10.245,4.473,21.441,8.709,31.607c1.234,2.961-1.43,6.039-1.566,9.198
			C122.667,156,68.667,156,14.667,156z M93.489,112.775c4.246-0.688,6.994-1.077,9.717-1.598c1.324-0.254,2.008-1.238,1.73-2.578
			c-0.229-1.11-1.173-1.721-2.242-1.538c-4.557,0.777-9.03-0.375-13.52-0.376c-2.216,0-6.673-1.436-5.971,4.051
			c0.193,1.528-1.531,1.159-2.703,1.119c-3.418-0.116-5.82,2.937-4.334,6.035c1.709,3.561,3.898,6.952,6.305,10.093
			c1.256,1.639,3.574,3.097,5.686,2.425c2.631-0.837,1.275-3.456,1.031-5.218c-0.479-3.458,1.502-4.434,4.226-4.866
			c3.481-0.553,6.954,0.074,10.431,0.124c6.217,0.089,6.227-0.054,4.279,5.451c-0.674,1.904-0.098,3.443,1.742,4.004
			c1.645,0.502,2.519-0.943,2.561-2.306c0.096-3.032,1.467-5.267,3.402-7.483c1.266-1.452,2.381-3.653,1.33-5.521
			c-1.15-2.041-3.322-0.179-5.028-0.306c-1.536-0.114-3.19,0.748-4.728,1.345C102.637,117.482,98.706,115.486,93.489,112.775z
			 M64.335,121.927c-0.859-2.932-1.517-5.493-2.386-7.981c-0.33-0.945-1.258-1.624-2.399-1.227c-0.945,0.33-0.905,1.269-0.927,2.091
			c-0.084,3.149,2.738,5.249,3.052,8.284c0.022,0.215,1.163,0.545,1.694,0.426C64.375,123.294,64.371,122.362,64.335,121.927z
			 M98.333,103.197c-2.41-1.112-4.359-2.786-6.996-2.432c-1.445,0.194-3.482,0.525-3.613,2.065c-0.179,2.085,2.037,1.66,3.35,1.782
			C93.459,104.836,95.956,105.228,98.333,103.197z"/>
		<path fill-rule="evenodd" clip-rule="evenodd" d="M-49.333,84c15.074,5.997,27.695,15.594,39.201,26.802
			c1.197,1.166,2.232,2.927,4.086,2.145c4.442-1.874,4.813,0.946,4.821,4.01c0.008,3.103,1.958,7.303-4.272,7.061
			c-3.979-0.154-7.967,1.222-11.482,3.011c-7.264,3.693-14.823,2.896-21.516,0.067c-4.209-1.779-7.249-0.558-10.837-0.095
			c0-12.333,0-24.667,0-37c4.353,1.66,8.705,3.32,13.057,4.98c-3.684-3.991-8.288-6.132-13.057-7.98C-49.333,86-49.333,85-49.333,84
			z"/>
		<path fill-rule="evenodd" clip-rule="evenodd" fill="none" d="M-49.333,87c4.769,1.849,9.374,3.989,13.057,7.98
			c-4.352-1.66-8.705-3.32-13.057-4.98C-49.333,89-49.333,88-49.333,87z"/>
		<path fill-rule="evenodd" clip-rule="evenodd" d="M108.393,64.896c1.912,2.079,3.798,1.862,5.588,1.941
			c1.825,0.082,3.682-0.077,5.469,0.211c2.867,0.462,6.412,1.602,6.072,4.691c-0.296,2.694-3.919,1.219-6.069,1.369
			c-2.763,0.191-5.55,0.046-9.315,0.046c2.732,3.233,5.826,1.034,8.105,2.749c-1.244,1.908-3.182,1.966-5.131,2.208
			c-3.893,0.482-7.746-0.393-11.791,0.851c-2.75,0.845-4.869-2.58-5.748-5.493c-0.521-1.729-0.6-3.589-0.926-5.381
			c-1.361-7.466-1.4-8.045,5.652-10.005c6.221-1.729,12.758-1.975,19.16-0.28c2.119,0.562,3.875,1.849,5.525,3.273
			c1.607,1.389,1.361,3.045,0.359,4.466c-1.217,1.722-2.455,0.213-3.32-0.541C117.631,61.181,113.299,62.274,108.393,64.896z"/>
		<path fill-rule="evenodd" clip-rule="evenodd" d="M74.116,79.568c2.367-6.451-3.256-3.685-5.51-4.691
			c-1.453-0.649-3.97,1.986-4.63-0.819c-0.631-2.686,1.974-3.383,4.017-4.206c2.407-0.97,5.181-1.04,7.739-3.191
			c-4.857-1.704-9.308-2.452-14.492-0.265c4.757-6.542,17.801-8.904,23.432-4.965c1.605,1.123,1.916,2.646,1.924,4.327
			C86.62,71.062,79.694,78.706,74.116,79.568z"/>
		<path fill-rule="evenodd" clip-rule="evenodd" d="M155.723,73.36c-1.371,3.905-4.651,3.921-7.32,4.77
			c-0.66,0.209-1.255-0.369-1.343-1.098c-0.134-1.118,0.394-2.143,1.505-2.069C150.927,75.12,152.947,73.95,155.723,73.36z"/>
		<path fill-rule="evenodd" clip-rule="evenodd" fill="none" d="M93.489,112.775c5.217,2.711,9.148,4.707,13.914,2.856
			c1.537-0.597,3.191-1.459,4.728-1.345c1.706,0.127,3.878-1.735,5.028,0.306c1.051,1.868-0.064,4.069-1.33,5.521
			c-1.936,2.217-3.307,4.451-3.402,7.483c-0.042,1.362-0.916,2.808-2.561,2.306c-1.84-0.561-2.416-2.1-1.742-4.004
			c1.947-5.505,1.938-5.362-4.279-5.451c-3.477-0.05-6.949-0.677-10.431-0.124c-2.724,0.433-4.704,1.408-4.226,4.866
			c0.244,1.762,1.6,4.381-1.031,5.218c-2.111,0.672-4.43-0.786-5.686-2.425c-2.406-3.141-4.596-6.532-6.305-10.093
			c-1.486-3.099,0.916-6.151,4.334-6.035c1.172,0.04,2.896,0.409,2.703-1.119c-0.702-5.486,3.755-4.051,5.971-4.051
			c4.489,0.001,8.963,1.153,13.52,0.376c1.069-0.183,2.014,0.428,2.242,1.538c0.277,1.34-0.406,2.324-1.73,2.578
			C100.483,111.698,97.735,112.088,93.489,112.775z"/>
		<path fill-rule="evenodd" clip-rule="evenodd" fill="none" d="M64.335,121.927c0.035,0.436,0.039,1.367-0.966,1.593
			c-0.531,0.119-1.671-0.211-1.694-0.426c-0.314-3.035-3.136-5.135-3.052-8.284c0.022-0.822-0.018-1.761,0.927-2.091
			c1.141-0.397,2.069,0.281,2.399,1.227C62.818,116.434,63.476,118.995,64.335,121.927z"/>
		<path fill-rule="evenodd" clip-rule="evenodd" fill="none" d="M98.333,103.197c-2.377,2.03-4.873,1.639-7.26,1.416
			c-1.312-0.122-3.528,0.303-3.35-1.782c0.131-1.54,2.168-1.871,3.613-2.065C93.973,100.411,95.922,102.085,98.333,103.197z"/>
	</g>
</g>
</svg>
