<?xml version="1.0" encoding="utf-8"?>
<!-- Generator: Adobe Illustrator 16.0.0, SVG Export Plug-In . SVG Version: 6.00 Build 0)  -->
<!DOCTYPE svg PUBLIC "-//W3C//DTD SVG 1.1//EN" "http://www.w3.org/Graphics/SVG/1.1/DTD/svg11.dtd">
<svg version="1.1" xmlns="http://www.w3.org/2000/svg" xmlns:xlink="http://www.w3.org/1999/xlink" x="0px" y="0px"
	 width="595.275px" height="257.117px" viewBox="0 227.717 595.275 257.117" enable-background="new 0 227.717 595.275 257.117"
	 xml:space="preserve">
<g id="Layer_2">
	
		<g id="svg2" xmlns:inkscape="http://www.inkscape.org/namespaces/inkscape" xmlns:sodipodi="http://sodipodi.sourceforge.net/DTD/sodipodi-0.dtd" xmlns:svg="http://www.w3.org/2000/svg" xmlns:rdf="http://www.w3.org/1999/02/22-rdf-syntax-ns#" xmlns:cc="http://creativecommons.org/ns#" xmlns:dc="http://purl.org/dc/elements/1.1/" inkscape:version="0.91 r13725" sodipodi:docname="New York City silhouette.svg">
		
			<sodipodi:namedview  id="base" pagecolor="#ffffff" bordercolor="#666666" borderopacity="1.0" inkscape:zoom="0.7" inkscape:cx="378.34544" inkscape:cy="441.8075" showgrid="false" inkscape:window-maximized="1" inkscape:window-y="-8" inkscape:pageshadow="2" inkscape:pageopacity="0.0" inkscape:current-layer="g141" inkscape:window-x="-8" inkscape:window-width="1366" inkscape:document-units="px" inkscape:window-height="715">
			</sodipodi:namedview>
		<g id="layer1" inkscape:label="Layer 1" inkscape:groupmode="layer">
			<g id="g141" transform="translate(-722.85886,-193.95744)">
				
					<rect id="rect3470" x="723.332" y="421.674" inkscape:export-ydpi="300" inkscape:export-xdpi="300" fill="#F5F5F5" width="596.394" height="318.4">
				</rect>
				<g>
					<defs>
						<rect id="SVGID_1_" x="144.572" y="38.791" width="640" height="640"/>
					</defs>
					<clipPath id="SVGID_2_">
						<use xlink:href="#SVGID_1_"  overflow="visible"/>
					</clipPath>
					<path id="path149" inkscape:connector-curvature="0" clip-path="url(#SVGID_2_)" fill="#3C3C3B" d="M296.353,570.839
						c-0.018,0.018,0.003,0.031,0.042,0.042C296.383,570.843,296.37,570.821,296.353,570.839"/>
				</g>
				<g>
					<defs>
						<rect id="SVGID_3_" x="603.166" y="-842.921" width="1766.889" height="1766.89"/>
					</defs>
					<clipPath id="SVGID_4_">
						<use xlink:href="#SVGID_3_"  overflow="visible"/>
					</clipPath>
					<path id="path151" inkscape:connector-curvature="0" clip-path="url(#SVGID_4_)" d="M1299.542,663.892l2.538,0.059v-3.131
						l-2.538,0.094l0.038-2.498l-2.398-0.047v-6.303l-1.507-0.115l-0.119-1.742l-4.006-0.93l0.154-1.729l2.227,0.047l0.057-1.162
						l1.509-0.521l0.35-1.453l1.396-0.404l-1.104-10.684c0,0,5.11-5.984,4.935-5.984c-0.175,0-3.079-3.715-3.079-3.715l-2.845,2.324
						l-3.134-6.08h-2.788l-2.012-2.691l1.63-1.797l0.173-2.73l2.961-0.409l-2.727-0.811l2.727-1.625l-3.542-0.117l2.034-2.381
						l-3.311,1.685l-0.29-3.019l-1.394,2.845l-0.93-0.058l-1.975-1.626l0.985,2.846l-2.092-0.29v-2.115l-0.497-0.268l-0.198-7.722
						l-1.308-1.821l0.031-0.385l2.381-0.056v-2.15l-0.581-0.756l-1.745-0.117l-0.17-0.627l1.915-0.24v-1.743l-0.639-1.009
						l-0.06-0.851l-0.695-0.811l0.996-2.089v-1.513l-4.018,5.264v2.169l0.697,0.823l0.175,0.513h-0.698l-0.697,0.93v2.321
						l1.047,0.581l0.009,2.686h1.331v2.705l-2.15,9.802v3.896l1.23,1.025v4.307l1.042,2.23l-1.042,5.762v2.256h1.184l0.201,1.08
						l-0.152,4.66h0.923l0.035,5.135l-0.958,3.68v10.758l-2.002-0.041v2.852l-2.815-0.033l0.625,3.439l2.376-0.012l-2.686,5.021
						c0,0-1.254-9.078-11.582-14.709c-0.947-0.518-1.884-0.947-2.812-1.334c-4.704-5.789-13.613-4.715-13.613-4.715v-4.635
						l-1.866,0.572c-0.555-1.975-1.566-3.023-2.463-3.584v-32.427h-11.622v23.902h-0.797v10.029l-0.453,0.455h-3.136v-92.422
						l-14.736-0.183v74.43c-1.455,0.195-2.754,0.689-3.82,1.244v-67.667l-10.827-10.824l-13.004,10.656l0.163,58.134
						c-1.95-0.238-3.671,0.043-5.133,0.574V507.128l-7.271-0.084l-0.128-1.504l5.676,0.044l1.723-0.798v-1.252l-1.381-1.129
						l-6.142-0.125l-1.003-42.494l-1.062,42.504h-6.457l-1.381,0.992l0.126,1.504l1.504,0.756h6.208v1.203h-8.359v105.399
						l-3.085-2.644l-5.007,5.634v6.884h-1.566v16.271h-1.565v7.299h-3.351v-37.965h-3.536v-11.638H1136v11.638h-0.886v10.463
						h-10.605v1.729c-1.444-0.018-2.365-0.033-2.365-0.033v0.584h-0.93v-7.694h-1.931v-3.627h-13.411v17.768h-4.896v14.297h-2.438
						v-2.592h-4.143v-1.707h-1.953v-2.438h-2.438v6.736h-1.659V628.59l-3.443-20.966l-3.445,20.966v11.896l-1.184,0.295v-37.654
						h-17.937v7.596h-2.568v15.216h-0.793l-1.301-6.154l-1.672,6.154h-4.525v-13.998h-3.414v2.924h-9.754v-2.193h-4.631v3.171
						h-3.417v-2.438h-3.655v12.684c-1.794,0.07-3.797,0.113-4.294-0.033c0.276,0.971-0.114,7.719-0.114,7.719h-2.704v8.273h-2.193
						v-13.143l-2.5-4.695l-2.507,5.633v9.393h-1.853v-34.541h-12.887v5.539h-1.429v11.875h-4.633v-16.751h-8.218v-13.471h-10.451
						v6.646h-10.104v26.302h-0.963v10.799l-0.947,0.949v-82.565h-1.915v-13.583h-1.915v-5.747h-1.917v-2.264h-2.089v-3.137
						l-1.743,0.349v-1.566l-1.044-0.174c0,0-0.097-13.238,0-15.674c0.108-2.73-2.756-2.991-2.756-2.991v-6.937h-0.87v6.877
						c-3.353,0.126-3.514,2.701-3.514,2.701v17.415h-2.611v2.788h-2.089v2.787l-2.092,0.174v4.875l-1.568,0.174v13.757h-1.044
						v69.248l-1.61,1.283v1.408c-0.095-0.002-0.162-0.004-0.162-0.004v3.967h-2.264v-39.013h-10.674v41.939h-0.457l-5.009-5.01
						v-29.617v-4.389h-3.169v-2.924h-8.344v-19.701h-7.401v40.663h-6.911V577.34h-8.974v52.406h-2.264v-3.172l-3.682,0.178v-4.416
						h-0.219v-2.832h-3.415v-2.438h-1.096v-23.232h-12.373v21.281h-2.425v-21.281h-11.103v17.622h-3.485v7.229l-1.25-0.73
						l-1.565,1.83v2.859l-1.564,0.316v15.627h-2.456v-49.513l-1.056-1.058v-5.442l-2.123-2.121v-12.461l-2.977-2.86v-3.892
						l-0.457-0.572v-3.203l-0.8-0.689v-4.117l-1.144-0.23v-4.117l-0.457-0.345v-2.628l-0.687-0.574v-2.403l-0.914-1.943
						l-0.029-18.548v0.343l-0.431,18.206h-0.572v3.428l-1.659,3.549v3.032l-1.773,1.773v3.889h-1.173v4.203l-0.828,0.831v3.375
						l-0.629,0.629v3.543h-0.676v12.158h-1.696v3.11h-1.979v52.473h-2.398v-2.818h-1.38V607.62h-22.393v32.908
						c-1.75,0.109-3.455,0.096-3.455-0.359v4.932l-0.976,0.975v-16.338h-6.338v17h-3.169v-21.143h-14.875V654.5h-3.779v-14.889
						h-14.676v10.531V678.4l571.769-0.363C1308.148,666.764,1299.542,663.892,1299.542,663.892"/>
				</g>
			</g>
		</g>
	</g>
</g>
<g id="Layer_3">
	<line fill="none" stroke="#000000" stroke-miterlimit="10" x1="292.637" y1="350.611" x2="164.637" y2="462.112"/>
	<line fill="none" stroke="#000000" stroke-miterlimit="10" x1="299.446" y1="369.526" x2="164.637" y2="462.112"/>
	<line fill="none" stroke="#000000" stroke-miterlimit="10" x1="311.111" y1="382.561" x2="164.637" y2="462.112"/>
	<line fill="none" stroke="#000000" stroke-miterlimit="10" x1="325.166" y1="390.917" x2="164.637" y2="462.112"/>
	<line fill="none" stroke="#000000" stroke-miterlimit="10" x1="339.478" y1="395.116" x2="164.637" y2="462.112"/>
	<ellipse fill="none" stroke="#3F3F3F" stroke-miterlimit="10" cx="351.137" cy="346.111" rx="58.5" ry="50"/>
	<line fill="none" stroke="#000000" stroke-miterlimit="10" x1="301.451" y1="319.722" x2="164.637" y2="462.112"/>
	<line fill="none" stroke="#000000" stroke-miterlimit="10" x1="164.637" y1="462.112" x2="362.791" y2="395.116"/>
	<text transform="matrix(1 0 0 1 323.666 305.856)"><tspan x="0" y="0" font-family="'Impact'" font-size="10.5"> </tspan><tspan x="0" y="34.2" font-family="'Impact'" font-size="28.5">Dirk  </tspan><tspan x="0" y="68.4" font-family="'Impact'" font-size="28.5">Dunn</tspan></text>
</g>
<g id="Layer_4">
	<text transform="matrix(1 0 0 1 15.4697 262.7773)" font-family="'Impact'" font-size="25">When web apps go to the dark side...</text>
</g>
</svg>
